<svg width="22" height="15" viewBox="0 0 22 15" fill="none" xmlns="http://www.w3.org/2000/svg">
<path d="M21.8671 6.77571C19.7958 2.73435 15.6953 0 11 0C6.30475 0 2.20304 2.73626 0.132896 6.77609C0.045523 6.94892 0 7.13988 0 7.33354C0 7.5272 0.045523 7.71815 0.132896 7.89099C2.20418 11.9323 6.30475 14.6667 11 14.6667C15.6953 14.6667 19.797 11.9304 21.8671 7.89061C21.9545 7.71777 22 7.52682 22 7.33316C22 7.13949 21.9545 6.94854 21.8671 6.77571ZM11 12.8334C9.9122 12.8334 8.84883 12.5108 7.94436 11.9064C7.03989 11.3021 6.33494 10.4431 5.91865 9.43811C5.50237 8.43312 5.39345 7.32725 5.60567 6.26035C5.81789 5.19345 6.34172 4.21344 7.11091 3.44425C7.8801 2.67506 8.8601 2.15124 9.927 1.93902C10.9939 1.7268 12.0998 1.83572 13.1048 2.252C14.1098 2.66828 14.9687 3.37323 15.5731 4.27771C16.1774 5.18218 16.5 6.24555 16.5 7.33335C16.5004 8.05572 16.3583 8.77108 16.0821 9.43853C15.8058 10.106 15.4007 10.7124 14.8899 11.2232C14.3791 11.734 13.7726 12.1391 13.1052 12.4154C12.4377 12.6917 11.7224 12.8337 11 12.8334ZM11 3.66667C10.6727 3.67125 10.3476 3.71994 10.0333 3.81143C10.2923 4.16346 10.4166 4.59667 10.3837 5.03249C10.3507 5.46831 10.1626 5.87789 9.85359 6.18694C9.54454 6.49599 9.13496 6.68406 8.69914 6.71703C8.26332 6.75 7.83011 6.62569 7.47808 6.36664C7.27763 7.10517 7.31381 7.88796 7.58155 8.60484C7.84928 9.32173 8.33508 9.9366 8.97058 10.3629C9.60607 10.7892 10.3593 11.0055 11.1241 10.9814C11.889 10.9572 12.627 10.6938 13.2343 10.2282C13.8417 9.76265 14.2877 9.11833 14.5096 8.38598C14.7316 7.65363 14.7183 6.87012 14.4716 6.14572C14.2249 5.42132 13.7573 4.79251 13.1346 4.3478C12.5118 3.90309 11.7652 3.66487 11 3.66667Z" fill="#718096"/>
</svg>
