<svg width="20" height="19" viewBox="0 0 20 19" fill="none" xmlns="http://www.w3.org/2000/svg">
<path d="M20 4.00001V4.66668C20 4.75508 19.9649 4.83987 19.9024 4.90238C19.8399 4.96489 19.7551 5.00001 19.6667 5.00001H18.6667V5.50001C18.6667 5.77614 18.4428 6.00001 18.1667 6.00001H1.83333C1.55721 6.00001 1.33333 5.77614 1.33333 5.50001V5.00001H0.333333C0.244928 5.00001 0.160143 4.96489 0.0976311 4.90238C0.0351189 4.83987 0 4.75508 0 4.66668V4.00001C4.76726e-07 3.93407 0.0195616 3.8696 0.0562084 3.81478C0.0928552 3.75995 0.144941 3.71723 0.205875 3.69201L9.87254 0.0253446C9.95415 -0.00844821 10.0458 -0.00844821 10.1275 0.0253446L19.7941 3.69201C19.8551 3.71723 19.9071 3.75995 19.9438 3.81478C19.9804 3.8696 20 3.93407 20 4.00001ZM19 16.6667H1C0.447708 16.6667 0 17.1144 0 17.6667V18.3333C0 18.4217 0.0351189 18.5065 0.0976311 18.569C0.160143 18.6316 0.244928 18.6667 0.333333 18.6667H19.6667C19.7551 18.6667 19.8399 18.6316 19.9024 18.569C19.9649 18.5065 20 18.4217 20 18.3333V17.6667C20 17.1144 19.5523 16.6667 19 16.6667ZM3.33333 6.66668V14.6667H1.83333C1.55721 14.6667 1.33333 14.8906 1.33333 15.1667V16H18.6667V15.1667C18.6667 14.8906 18.4428 14.6667 18.1667 14.6667H16.6667V6.66668H14V14.6667H11.3333V6.66668H8.66667V14.6667H6V6.66668H3.33333Z" fill="#718096"/>
</svg>
