<svg width="36" height="36" viewBox="0 0 36 36" fill="none" xmlns="http://www.w3.org/2000/svg">
<rect width="36" height="36" rx="18" fill="white"/>
<path d="M19.375 10.125H25.375C25.7892 10.125 26.125 10.5088 26.125 10.9821V16.6964C26.125 17.1698 25.7892 17.5536 25.375 17.5536H19.375C18.9608 17.5536 18.625 17.1698 18.625 16.6964V10.9821C18.625 10.5088 18.9608 10.125 19.375 10.125ZM16.875 10.125H10.875C10.4608 10.125 10.125 10.5088 10.125 10.9821V16.6964C10.125 17.1698 10.4608 17.5536 10.875 17.5536H16.875C17.2892 17.5536 17.625 17.1698 17.625 16.6964V10.9821C17.625 10.5088 17.2892 10.125 16.875 10.125ZM10.125 19.5536V25.2679C10.125 25.7413 10.4608 26.125 10.875 26.125H16.875C17.2892 26.125 17.625 25.7413 17.625 25.2679V19.5536C17.625 19.0802 17.2892 18.6964 16.875 18.6964H10.875C10.4608 18.6964 10.125 19.0802 10.125 19.5536ZM19.375 26.125H25.375C25.7892 26.125 26.125 25.7413 26.125 25.2679V19.5536C26.125 19.0802 25.7892 18.6964 25.375 18.6964H19.375C18.9608 18.6964 18.625 19.0802 18.625 19.5536V25.2679C18.625 25.7413 18.9608 26.125 19.375 26.125Z" fill="#1A202C"/>
</svg>
