<svg width="36" height="36" viewBox="0 0 36 36" fill="none" xmlns="http://www.w3.org/2000/svg">
<rect width="36" height="36" rx="18" fill="#9F7AEA"/>
<path d="M19.3333 12.6667V7H11C10.4458 7 10 7.44583 10 8V27.3333C10 27.8875 10.4458 28.3333 11 28.3333H25C25.5542 28.3333 26 27.8875 26 27.3333V13.6667H20.3333C19.7833 13.6667 19.3333 13.2167 19.3333 12.6667ZM12.6667 10C12.6667 9.81583 12.8158 9.66667 13 9.66667H16.3333C16.5175 9.66667 16.6667 9.81583 16.6667 10V10.6667C16.6667 10.8508 16.5175 11 16.3333 11H13C12.8158 11 12.6667 10.8508 12.6667 10.6667V10ZM12.6667 12.6667C12.6667 12.4825 12.8158 12.3333 13 12.3333H16.3333C16.5175 12.3333 16.6667 12.4825 16.6667 12.6667V13.3333C16.6667 13.5175 16.5175 13.6667 16.3333 13.6667H13C12.8158 13.6667 12.6667 13.5175 12.6667 13.3333V12.6667ZM20.7004 23H22.6667C23.035 23 23.3333 23.2983 23.3333 23.6667C23.3333 24.035 23.035 24.3333 22.6667 24.3333H20.7004C20.015 24.3333 19.3975 23.9525 19.0904 23.3392C18.9675 23.0925 18.7533 23.0675 18.6667 23.0675C18.58 23.0675 18.3658 23.0921 18.2492 23.3254L17.9296 23.9646C17.8742 24.0753 17.7891 24.1685 17.6838 24.2335C17.5785 24.2986 17.4571 24.333 17.3333 24.3329C17.3175 24.3329 17.3021 24.3321 17.2858 24.3308C17.0171 24.3121 16.7858 24.1329 16.7013 23.8771L16 21.7746L15.5579 23.1029C15.3125 23.8388 14.6254 24.3333 13.8496 24.3333H13.3333C12.965 24.3333 12.6667 24.035 12.6667 23.6667C12.6667 23.2983 12.965 23 13.3333 23H13.8496C14.0508 23 14.2292 22.8717 14.2929 22.6808L15.0508 20.4042C15.1883 19.9954 15.5692 19.7204 16 19.7204C16.4308 19.7204 16.8117 19.995 16.9488 20.4042L17.5271 22.1392C18.3508 21.4646 19.7792 21.735 20.2771 22.7292C20.3612 22.8983 20.5254 23 20.7004 23ZM25.7083 11.375L21.6292 7.29167C21.4417 7.10417 21.1875 7 20.9208 7H20.6667V12.3333H26V12.0792C26 11.8167 25.8958 11.5625 25.7083 11.375Z" fill="#EDF2F7"/>
</svg>
