<svg width="16" height="16" viewBox="0 0 16 16" fill="none" xmlns="http://www.w3.org/2000/svg">
<path d="M8 0C3.58065 0 0 3.58065 0 8C0 12.4194 3.58065 16 8 16C12.4194 16 16 12.4194 16 8C16 3.58065 12.4194 0 8 0ZM8 14.4516C4.43548 14.4516 1.54839 11.5645 1.54839 8C1.54839 4.43548 4.43548 1.54839 8 1.54839C11.5645 1.54839 14.4516 4.43548 14.4516 8C14.4516 11.5645 11.5645 14.4516 8 14.4516ZM6.96774 4.25806V8H4.80645C4.46129 8 4.29032 8.41613 4.53226 8.66129L7.72581 11.8548C7.87742 12.0065 8.12258 12.0065 8.27419 11.8548L11.4677 8.66129C11.7129 8.41613 11.5387 8 11.1935 8H9.03226V4.25806C9.03226 4.04516 8.85806 3.87097 8.64516 3.87097H7.35484C7.14194 3.87097 6.96774 4.04516 6.96774 4.25806Z" fill="#EDF2F7"/>
</svg>
