<svg width="36" height="36" viewBox="0 0 36 36" fill="none" xmlns="http://www.w3.org/2000/svg">
<rect width="36" height="36" rx="18" fill="#38B2AC"/>
<path d="M19 7.99419C19 7.00253 17.7229 6.62878 17.1604 7.45086C12 14.9938 19.3333 15.3334 19.3333 19C19.3333 20.4846 18.1204 21.6859 16.6312 21.6663C15.1658 21.6475 14 20.4259 14 18.9604V15.3975C14 14.4934 12.8971 14.0546 12.2737 14.71C11.1583 15.8817 10 17.8888 10 20.3334C10 24.7446 13.5887 28.3334 18 28.3334C22.4113 28.3334 26 24.7446 26 20.3334C26 13.2379 19 12.2917 19 7.99419Z" fill="#EDF2F7"/>
</svg>
