<svg width="36" height="36" viewBox="0 0 36 36" fill="none" xmlns="http://www.w3.org/2000/svg">
<rect width="36" height="36" rx="18" fill="#F56565"/>
<path d="M23.6025 14.7972L22.2638 13.4584C21.9675 13.1648 21.5672 13 21.15 13H14.7712C14.355 13 13.9528 13.1659 13.6575 13.4584L12.3187 14.7972H9V21.9887H10.8C11.295 21.9887 11.6944 21.5894 11.6972 21.0972H11.9531L14.3325 23.2459C15.2016 23.9519 16.4081 23.9687 17.3025 23.3528C17.6541 23.6566 18.0337 23.8 18.4584 23.8C18.9703 23.8 19.4513 23.5919 19.8309 23.125C20.4525 23.3697 21.1866 23.1981 21.6309 22.6525L22.3678 21.7441C22.5253 21.55 22.6237 21.3278 22.6744 21.0972H24.3028C24.3056 21.5894 24.7078 21.9887 25.2 21.9887H27V14.7972H23.6025ZM10.35 21.0887C10.1025 21.0887 9.9 20.8862 9.9 20.6387C9.9 20.3912 10.1025 20.1887 10.35 20.1887C10.5975 20.1887 10.8 20.3912 10.8 20.6387C10.8 20.8891 10.5975 21.0887 10.35 21.0887ZM21.3187 20.8947L20.5847 21.8003C20.5059 21.8959 20.3653 21.9128 20.2669 21.8341L19.5947 21.2884L18.7509 22.315C18.5822 22.5203 18.3291 22.45 18.2447 22.3825L17.2097 21.4966L16.7709 22.0366C16.38 22.5175 15.6684 22.5906 15.2156 22.2222L12.4791 19.7472H11.7V16.1444H12.8784L14.6137 14.4119C14.67 14.3894 14.7178 14.3697 14.7741 14.3472H16.3687L15.2803 15.3456C14.4534 16.1022 14.4056 17.3791 15.1566 18.1947C15.5728 18.6503 16.8778 19.3534 18.0112 18.3184L18.2419 18.1075L21.285 20.5769C21.3806 20.6556 21.3947 20.7991 21.3187 20.8947ZM24.3 19.7472H22.3537C22.2891 19.6684 22.2159 19.5953 22.1372 19.5306L19.2487 17.185L19.6003 16.8644C19.7831 16.6956 19.7972 16.4116 19.6284 16.2287L19.3219 15.8997C19.1531 15.7169 18.8691 15.7056 18.6862 15.8716L17.1337 17.2947C16.8666 17.5394 16.4109 17.5591 16.1606 17.2947C15.8991 17.0162 15.9216 16.5887 16.1944 16.3412L18.0394 14.6509C18.2475 14.4597 18.5175 14.3556 18.7987 14.3556L21.1528 14.35C21.2119 14.35 21.2681 14.3725 21.3075 14.4147L23.0428 16.1472H24.3V19.7472ZM25.65 21.0887C25.4025 21.0887 25.2 20.8862 25.2 20.6387C25.2 20.3912 25.4025 20.1887 25.65 20.1887C25.8975 20.1887 26.1 20.3912 26.1 20.6387C26.1 20.8891 25.8975 21.0887 25.65 21.0887Z" fill="#EDF2F7"/>
</svg>
