<svg width="20" height="20" viewBox="0 0 20 20" fill="none" xmlns="http://www.w3.org/2000/svg">
<path d="M10 0C4.47702 0 0 4.47702 0 10C0 15.523 4.47702 20 10 20C15.523 20 20 15.523 20 10C20 4.47702 15.523 0 10 0ZM10 17.4194C5.8996 17.4194 2.58065 14.1012 2.58065 10C2.58065 5.8996 5.89879 2.58065 10 2.58065C14.1004 2.58065 17.4194 5.89879 17.4194 10C17.4194 14.1004 14.1012 17.4194 10 17.4194ZM10 4.83871C7.1496 4.83871 4.83871 7.1496 4.83871 10C4.83871 12.8504 7.1496 15.1613 10 15.1613C12.8504 15.1613 15.1613 12.8504 15.1613 10C15.1613 7.1496 12.8504 4.83871 10 4.83871ZM10 12.5806C8.57702 12.5806 7.41935 11.423 7.41935 10C7.41935 8.57702 8.57702 7.41935 10 7.41935C11.423 7.41935 12.5806 8.57702 12.5806 10C12.5806 11.423 11.423 12.5806 10 12.5806Z" fill="#718096"/>
</svg>
