<svg width="14" height="14" viewBox="0 0 14 14" fill="none" xmlns="http://www.w3.org/2000/svg">
<path d="M13.8096 12.1048L11.0832 9.3784C10.9602 9.25535 10.7934 9.18698 10.6184 9.18698H10.1726C10.9274 8.22168 11.3758 7.00753 11.3758 5.68673C11.3758 2.5447 8.82994 -0.00119019 5.68792 -0.00119019C2.54589 -0.00119019 0 2.5447 0 5.68673C0 8.82875 2.54589 11.3746 5.68792 11.3746C7.00872 11.3746 8.22287 10.9262 9.18817 10.1714V10.6172C9.18817 10.7922 9.25654 10.959 9.37959 11.082L12.106 13.8084C12.363 14.0655 12.7787 14.0655 13.033 13.8084L13.8069 13.0345C14.0639 12.7775 14.0639 12.3618 13.8096 12.1048ZM5.68792 9.18698C3.75457 9.18698 2.18766 7.62281 2.18766 5.68673C2.18766 3.75338 3.75184 2.18647 5.68792 2.18647C7.62126 2.18647 9.18817 3.75065 9.18817 5.68673C9.18817 7.62007 7.624 9.18698 5.68792 9.18698Z" fill="#1A202C"/>
</svg>
